<svg id="Layer_1" data-name="Layer 1" xmlns="http://www.w3.org/2000/svg" viewBox="0 0 1280 230.09"><defs><style>.cls-1{fill:#6456a5;}.cls-2{fill:#35316d;}</style></defs><path class="cls-1" d="M467.05,48.45q37.47,0,40.72,40H487.53q-2.75-20-19.48-20-9.75,0-16,4.74-5,3.75-5,12.22,0,8,29.23,24.43,23,12,27.73,21.2a43.34,43.34,0,0,1,3.75,18.19q0,16.46-12.36,28.43t-28.36,12h-20q-40.72,0-40.72-40.48h20.4q2.24,20.49,18.91,20.49,9.71,0,16.17-4.5a13.42,13.42,0,0,0,3.85-5,17.9,17.9,0,0,0,1.38-7.49q0-8.25-29.36-24.24-23.64-13.49-27.37-21.48a43.86,43.86,0,0,1-2.86-8.5,42,42,0,0,1-1.12-9.74q0-16.23,12-28.23a39.23,39.23,0,0,1,28.73-12Z"/><path class="cls-1" d="M529.25,230.09V48.45H570v20q0-9.11,4.74-14.54T590,48.45h20.48A38.8,38.8,0,0,1,638.68,60q11.75,11.58,11.75,28.66v60.56q0,16.95-11.75,28.42-11.23,12-28.23,12H570v40.47ZM570,88.68v80.95h20q7.24,0,14.48-6a20.76,20.76,0,0,0,6-14.45V88.68q0-7.59-6-14.16-5-5.31-14.48-6.33-7.76,0-13.87,6.07A19.64,19.64,0,0,0,570,88.68Z"/><path class="cls-1" d="M752.35,108.92V88.55q0-7.44-6.12-13.78a19.34,19.34,0,0,0-14.36-6.33h-20q-17.24,0-20.23,20H671.16q4.5-40,40.72-40h40.47A38.94,38.94,0,0,1,780.59,60q11.73,11.49,11.74,28.48V189.62h-40v-20q-2.24,20-20.48,20h-20q-15.74,0-28.23-12.13t-12.49-28.35q0-16.23,12.24-28.23t28.48-12Zm0,20H731.87q-7.5,0-14.24,5.75a23.22,23.22,0,0,0-4.25,6.49,21.44,21.44,0,0,0,4.25,22.49q6.74,6,14.24,6,7.74,0,14.49-6a20.82,20.82,0,0,0,6-14.49Z"/><path class="cls-1" d="M873.77,48.45q37.49,0,40.73,40H894.26q-2.25-20-20.49-20a20.68,20.68,0,0,0-20,20.19v60.56a20.13,20.13,0,0,0,5.75,14.46q6.75,6,14.24,6,18,0,20.49-20.49H914.5q0,20-10.75,30.23t-30,10.25h-20q-15.74,0-28.22-12.13t-12.5-28.35V88.43q0-15.74,12-27.85a39,39,0,0,1,28.72-12.13Z"/><path class="cls-1" d="M1056.9,88.43V128.9H976.45v20.24a20.2,20.2,0,0,0,5.75,14.49q6.74,6,14.24,6h20.48q20.25,0,20.24-20.49h19.74q-4.25,40.47-40,40.48H976.45q-15.74,0-28.23-12.13t-12.49-28.35V88.43q0-15.74,12-27.85a39,39,0,0,1,28.73-12.13h40.47A39,39,0,0,1,1045.16,60Q1056.89,71.44,1056.9,88.43Zm-80.45.12v20.37h40.47V88.55q0-7.44-6.12-13.78a19.28,19.28,0,0,0-28.23-.36A19.06,19.06,0,0,0,976.45,88.55Z"/><path class="cls-1" d="M1098.12,189.62h-20.49V8h9.75l85.94,85.94L1259.51,8H1280V189.62h-40.73V78.44l-70.45,70.7-70.7-70.7Z"/><path class="cls-2" d="M92,3.1l86.93,68.78a1.74,1.74,0,0,0,2.82-1.38L181,1.72A1.74,1.74,0,0,0,179.29,0H93A1.74,1.74,0,0,0,92,3.1Z"/><path class="cls-1" d="M272.18,221.09l85.34-66.81a1.75,1.75,0,0,1,2.82,1.39l-.66,66.81a1.73,1.73,0,0,1-1.74,1.72H273.26A1.74,1.74,0,0,1,272.18,221.09Z"/><path class="cls-2" d="M88.33,221.09,3,154.28a1.75,1.75,0,0,0-2.82,1.39l.65,66.81a1.75,1.75,0,0,0,1.75,1.72H87.26A1.74,1.74,0,0,0,88.33,221.09Z"/><path class="cls-1" d="M0,81.5.66,7.66A1.74,1.74,0,0,1,3.47,6.3L178.7,141.72,356.75,7.58A1.75,1.75,0,0,1,359.55,9l.66,71.88a1.76,1.76,0,0,1-.68,1.39L180.81,220.62.68,82.91A1.8,1.8,0,0,1,0,81.5Z"/><path class="cls-2" d="M180.85,220.62.72,82.91A1.8,1.8,0,0,1,0,81.5L.7,7.66A1.74,1.74,0,0,1,3.51,6.3L178.74,141.72"/></svg>